<svg xmlns="http://www.w3.org/2000/svg" width="18.832" height="18.835" viewBox="0 0 18.832 18.835">
  <path id="error_transparent" data-name="error transparent" d="M567.465,372.779a9.417,9.417,0,1,1,9.416-9.417A9.416,9.416,0,0,1,567.465,372.779Zm0-16.661a7.244,7.244,0,1,0,7.243,7.244A7.244,7.244,0,0,0,567.465,356.118Zm3.285,9.805-.734.734a.345.345,0,0,1-.489,0l-2.079-2.079-2.079,2.079a.345.345,0,0,1-.488,0l-.734-.734a.346.346,0,0,1,0-.489l2.078-2.079-2.078-2.079a.345.345,0,0,1,0-.489l.734-.734a.346.346,0,0,1,.488,0l2.079,2.08,2.079-2.08a.346.346,0,0,1,.489,0l.734.734a.345.345,0,0,1,0,.489l-2.079,2.079,2.079,2.079A.346.346,0,0,1,570.75,365.923Z" transform="translate(-558.049 -353.945)" fill="#fff"/>
</svg>
